<svg width="1920" height="1080" viewBox="0 0 1920 1080" xmlns="http://www.w3.org/2000/svg"><rect width="1920" height="1080" fill="#0d0d0d"/><path d="M 0,1080 C 0,1080 0,270 0,270 C 199.60714285714283,220.96428571428572 399.21428571428567,171.92857142857142 527,178 C 654.7857142857143,184.07142857142858 710.75,245.25000000000006 878,283 C 1045.25,320.74999999999994 1323.7857142857142,335.07142857142856 1516,329 C 1708.2142857142858,322.92857142857144 1814.107142857143,296.4642857142857 1920,270 C 1920,270 1920,1080 1920,1080 Z" fill="#000000" opacity="0.15"/><path d="M 0,1080 C 0,1080 0,540 0,540 C 148.32142857142856,600.9642857142858 296.6428571428571,661.9285714285714 436,640 C 575.3571428571429,618.0714285714286 705.75,513.2500000000001 894,504 C 1082.25,494.7499999999999 1328.3571428571427,581.0714285714286 1509,603 C 1689.6428571428573,624.9285714285714 1804.8214285714287,582.4642857142858 1920,540 C 1920,540 1920,1080 1920,1080 Z" fill="#000000" opacity="0.3"/><path d="M 0,1080 C 0,1080 0,810 0,810 C 136.25,771.5357142857142 272.5,733.0714285714286 426,720 C 579.5,706.9285714285714 750.25,719.25 935,729 C 1119.75,738.75 1318.5,745.9285714285714 1485,759 C 1651.5,772.0714285714286 1785.75,791.0357142857142 1920,810 C 1920,810 1920,1080 1920,1080 Z" fill="#000000" opacity="0.44999999999999996"/></svg>